<?xml version="1.0" standalone="no"?>
<!DOCTYPE svg PUBLIC "-//W3C//DTD SVG 20010904//EN"
 "http://www.w3.org/TR/2001/REC-SVG-20010904/DTD/svg10.dtd">
<svg version="1.0" xmlns="http://www.w3.org/2000/svg"
 width="600.000000pt" height="600.000000pt" viewBox="0 0 600.000000 600.000000"
 preserveAspectRatio="xMidYMid meet">
<metadata>
Created by potrace 1.14, written by Peter Selinger 2001-2017
</metadata>
<g transform="translate(0.000000,600.000000) scale(0.100000,-0.100000)"
fill="#000000" stroke="none">
<path d="M1595 4337 c-17 -5 -37 -11 -45 -14 -8 -4 -20 -5 -26 -4 -6 0 -17 -6
-24 -14 -7 -8 -17 -15 -22 -15 -19 0 -118 -121 -122 -150 -1 -3 -5 -11 -9 -17
-5 -7 -6 -13 -3 -13 3 0 -1 -17 -8 -37 -10 -31 -15 -165 -6 -183 1 -3 2 -8 1
-12 0 -5 4 -8 11 -8 6 0 9 -3 5 -6 -9 -10 31 -78 73 -124 22 -24 40 -40 40
-35 0 5 10 -1 23 -13 12 -11 25 -21 30 -21 4 -1 8 -1 10 -2 47 -14 116 -19
122 -9 4 6 10 8 14 5 5 -2 44 13 87 34 110 53 128 59 217 64 26 2 47 1 47 -3
0 -3 14 -7 32 -8 59 -5 149 -70 170 -124 6 -13 0 -22 -22 -33 -16 -9 -33 -15
-36 -14 -4 0 -10 -3 -13 -8 -3 -4 -31 -26 -62 -47 -58 -39 -209 -177 -209
-190 0 -7 -10 -21 -59 -82 -13 -16 -72 -140 -75 -156 -1 -7 -5 -19 -9 -25 -8
-13 -13 -29 -28 -102 -5 -24 -12 -49 -17 -55 -10 -14 -8 -345 3 -406 4 -25 12
-51 17 -57 6 -7 7 -13 2 -13 -4 0 -3 -5 3 -11 6 -6 9 -18 6 -25 -3 -8 -1 -20
5 -27 10 -13 32 -77 31 -91 0 -5 3 -12 8 -15 5 -3 20 -28 33 -54 14 -26 33
-57 43 -67 9 -11 17 -24 17 -30 0 -5 5 -10 10 -10 6 0 10 -5 10 -11 0 -13 115
-129 127 -129 5 0 15 -9 23 -20 8 -11 20 -20 26 -20 7 0 14 -7 18 -15 3 -8 12
-15 19 -15 8 0 27 -11 43 -25 16 -14 34 -25 40 -25 6 0 17 -6 23 -14 7 -8 24
-17 39 -21 15 -4 30 -11 33 -16 3 -6 15 -12 25 -14 10 -2 20 -4 22 -5 1 -2 7
-3 12 -4 6 0 14 -5 18 -11 4 -5 18 -11 31 -13 13 -2 43 -12 67 -22 24 -11 44
-18 44 -16 0 2 21 -2 46 -10 26 -7 50 -11 55 -8 5 3 9 1 9 -5 0 -5 8 -8 18 -6
9 1 22 0 27 -4 6 -3 21 -7 35 -8 14 -1 45 -5 70 -8 59 -9 440 -10 510 -2 30 3
71 9 90 13 19 3 45 6 58 7 12 1 22 4 22 8 0 5 9 6 19 4 11 -2 33 1 48 6 28 9
201 61 216 65 4 1 10 3 15 4 4 1 10 2 15 1 4 0 7 3 7 9 0 5 7 7 15 4 8 -4 15
-1 15 5 0 6 7 11 15 11 9 0 34 9 55 20 22 11 40 18 40 16 0 -9 103 54 154 94
50 39 188 185 213 226 44 70 76 129 76 141 0 7 5 13 10 13 6 0 7 3 4 7 -4 3
-2 11 3 18 5 6 11 20 13 31 1 10 6 25 11 32 4 7 5 16 2 19 -3 3 -1 12 5 19 6
8 9 20 6 29 -4 8 -2 17 4 20 5 4 9 18 9 33 0 91 6 148 15 154 6 5 6 8 0 8 -6
0 -10 48 -10 125 0 69 -4 125 -8 125 -5 0 -5 4 -2 10 3 5 0 29 -6 52 -7 24
-13 46 -13 50 -1 3 -4 10 -8 14 -5 4 -8 18 -8 31 0 13 -4 23 -8 23 -7 0 -35
59 -34 71 1 4 -8 15 -18 24 -11 10 -20 26 -20 37 0 10 -4 18 -10 18 -5 0 -10
4 -10 9 0 10 -144 161 -154 161 -5 0 -28 17 -60 45 -6 6 -31 24 -56 40 -25 17
-46 33 -48 38 -2 4 -7 7 -11 7 -4 0 -31 13 -59 28 l-51 28 22 25 c23 27 74 57
104 62 10 1 23 5 28 8 34 16 225 -11 225 -33 0 -5 4 -7 8 -4 5 3 26 -6 48 -18
40 -22 77 -36 119 -43 30 -5 38 -5 65 1 14 3 37 8 52 11 42 10 135 106 164
170 42 91 38 211 -10 303 -9 17 -14 32 -11 32 6 0 -15 25 -69 80 -21 22 -45
40 -52 40 -8 0 -14 5 -14 11 0 5 -4 7 -10 4 -5 -3 -10 -1 -10 6 0 7 -3 9 -7 6
-3 -4 -12 -2 -19 4 -7 6 -33 12 -57 13 -24 2 -48 5 -53 8 -12 7 -149 -5 -194
-17 -14 -3 -34 -7 -45 -9 -11 -2 -35 -10 -52 -20 -18 -9 -33 -13 -33 -9 0 5
-4 3 -8 -3 -4 -6 -21 -19 -39 -27 -37 -20 -163 -140 -163 -157 0 -6 -5 -8 -12
-4 -8 5 -9 2 -5 -9 3 -10 2 -17 -4 -17 -5 0 -12 -8 -16 -17 -3 -10 -11 -25
-18 -33 -10 -12 -67 -141 -71 -160 -10 -48 -18 -71 -25 -76 -4 -2 -6 -11 -3
-18 7 -17 -17 -36 -41 -31 -11 2 -20 4 -20 5 0 1 -11 4 -25 6 -13 2 -27 8 -30
12 -5 7 -14 9 -72 14 -16 1 -28 5 -28 8 0 3 -10 7 -22 8 -13 0 -39 4 -58 7
-70 13 -261 27 -365 27 -79 0 -300 -16 -300 -22 0 -1 -11 -3 -25 -5 -42 -4
-176 -34 -207 -46 -15 -6 -28 -10 -28 -9 0 1 -12 -3 -27 -9 -23 -8 -28 -8 -29
4 -1 15 -4 28 -9 43 -1 4 -3 12 -4 17 -13 70 -68 221 -85 235 -8 6 -34 65 -29
66 1 0 -4 8 -12 16 -8 9 -26 31 -40 49 -37 49 -78 89 -90 89 -6 0 -8 5 -5 10
3 6 -1 10 -9 10 -9 0 -16 3 -16 8 0 4 -10 13 -22 19 -55 28 -114 56 -123 58
-5 1 -12 3 -15 5 -3 1 -14 4 -25 6 -11 2 -33 6 -50 10 -49 10 -209 11 -240 1z"/>
</g>
</svg>
