<?xml version="1.0" standalone="no"?>
<!DOCTYPE svg PUBLIC "-//W3C//DTD SVG 20010904//EN"
 "http://www.w3.org/TR/2001/REC-SVG-20010904/DTD/svg10.dtd">
<svg version="1.0" xmlns="http://www.w3.org/2000/svg"
 width="606.000000pt" height="606.000000pt" viewBox="0 0 606.000000 606.000000"
 preserveAspectRatio="xMidYMid meet">
<metadata>
Created by potrace 1.14, written by Peter Selinger 2001-2017
</metadata>
<g transform="translate(0.000000,606.000000) scale(0.100000,-0.100000)"
fill="#000000" stroke="none">
<path d="M2673 6045 c-916 -116 -1711 -624 -2201 -1409 -224 -359 -376 -796
-427 -1232 -20 -169 -20 -519 0 -688 31 -262 95 -519 191 -761 420 -1059 1407
-1792 2539 -1888 l150 -13 -60 -12 c-33 -6 -107 -17 -165 -23 -58 -6 -107 -13
-109 -15 -2 -2 252 -4 565 -3 388 0 561 3 544 10 -26 11 -190 32 -345 45 l-90
8 85 8 c375 36 804 173 1152 368 367 206 726 527 966 865 343 480 531 1017
561 1598 12 247 4 412 -30 627 -37 229 -103 462 -199 700 -21 52 -54 136 -73
186 -44 114 -74 172 -132 254 -25 36 -68 98 -95 138 -46 68 -261 307 -339 377
-18 16 -70 67 -115 111 -44 45 -94 90 -111 100 -16 10 -75 50 -130 89 -235
167 -475 297 -730 393 -71 28 -152 59 -180 70 -89 35 -158 52 -255 62 -52 6
-135 17 -185 26 -130 22 -631 28 -782 9z m-815 -685 c12 -12 28 -35 36 -53 18
-43 91 -82 186 -97 92 -15 150 -44 150 -77 0 -12 -13 -37 -29 -55 l-29 -33
-314 -3 c-172 -2 -331 1 -353 6 -39 8 -40 9 -39 50 1 53 13 67 78 87 50 16 56
22 87 78 27 49 45 68 84 89 60 33 113 36 143 8z m2456 -189 c11 -9 16 -25 14
-44 -4 -39 -60 -69 -137 -75 -76 -5 -111 20 -111 82 0 23 2 45 4 47 3 2 51 4
109 4 74 0 109 -4 121 -14z m-834 -1 c10 -5 23 -23 29 -40 23 -68 -73 -111
-118 -54 -26 33 -27 58 -1 84 22 22 60 26 90 10z m448 -117 c42 -21 82 -44 89
-53 6 -9 27 -33 47 -55 58 -65 76 -113 76 -206 0 -73 -4 -89 -35 -153 -19 -39
-40 -78 -47 -86 -31 -36 -201 -110 -255 -110 -48 0 -137 22 -146 37 -4 7 -16
13 -27 13 -10 0 -40 17 -67 37 -63 48 -69 54 -78 83 -4 14 -14 29 -21 35 -7 5
-17 42 -23 82 -13 82 3 176 42 246 12 22 26 48 32 58 12 23 137 90 185 100 90
18 148 10 228 -28z m1003 -160 c54 -49 85 -98 94 -152 7 -45 35 -67 64 -51 10
6 24 -3 44 -29 35 -43 147 -208 147 -216 0 -3 -192 -5 -427 -5 -470 0 -463 -1
-463 62 0 57 61 128 109 128 11 0 22 4 25 9 3 5 22 12 41 15 39 8 56 31 54 73
-2 36 28 128 48 145 28 24 127 56 175 57 42 1 53 -4 89 -36z m-1596 -166 c20
-29 19 -71 -2 -89 -28 -24 -90 -29 -134 -11 -37 14 -39 18 -39 58 0 37 3 44
28 53 62 24 126 20 147 -11z m194 -352 c55 -28 55 -73 1 -126 -32 -31 -45 -39
-63 -34 -44 13 -59 62 -38 119 8 19 39 44 69 55 2 1 16 -6 31 -14z m501 -73
c3 -3 -5 -1 -17 2 -19 6 -23 3 -23 -13 0 -23 -15 -28 -26 -10 -4 8 -9 7 -15
-2 -6 -10 -9 -8 -9 9 0 15 6 22 19 22 11 0 23 5 26 10 6 10 14 7 45 -18z
m-100 -16 c0 -13 5 -26 12 -28 6 -2 9 -10 7 -17 -4 -11 -9 -10 -22 3 -18 19
-23 66 -7 66 6 0 10 -11 10 -24z m1421 -295 c56 -13 97 -64 104 -131 10 -87
20 -100 76 -100 47 0 48 -1 58 -37 16 -59 30 -127 31 -140 0 -10 -80 -13 -367
-13 -314 0 -437 6 -444 23 0 1 -3 27 -5 58 l-4 57 47 22 c36 17 74 25 155 29
59 4 110 10 113 13 3 3 8 29 12 57 8 71 64 141 126 158 53 14 55 14 98 4z
m-4771 -601 c30 -6 78 -17 105 -25 151 -40 273 -69 453 -107 28 -6 52 -15 52
-20 0 -4 6 -8 13 -8 15 0 50 -18 112 -56 22 -14 56 -32 75 -42 19 -9 55 -37
79 -60 23 -24 58 -50 76 -58 18 -7 35 -17 37 -22 1 -4 19 -19 38 -32 19 -13
55 -41 80 -62 112 -93 178 -145 211 -166 46 -28 108 -95 138 -147 12 -22 39
-52 59 -65 20 -14 63 -46 95 -72 52 -41 66 -47 125 -54 37 -4 99 -2 140 3 89
13 167 60 215 131 48 70 146 161 202 188 28 13 64 37 80 54 16 16 34 30 41 30
7 0 25 11 41 23 67 56 234 126 363 152 62 12 106 15 165 10 91 -8 118 -18 195
-69 30 -20 65 -36 79 -36 15 0 37 -14 61 -40 20 -22 44 -40 52 -40 8 0 46 -19
84 -43 38 -24 112 -68 164 -97 52 -30 116 -68 142 -84 26 -17 68 -44 94 -61
26 -16 57 -36 68 -43 25 -16 384 -10 499 8 147 22 229 84 283 210 19 47 43 94
53 105 15 16 56 111 65 150 4 18 55 119 69 138 8 9 19 17 26 17 6 0 11 5 11
12 0 6 11 25 24 42 13 17 26 40 30 51 7 25 71 69 85 60 17 -10 14 -370 -4
-514 -40 -317 -120 -587 -261 -871 -399 -806 -1198 -1359 -2098 -1450 -188
-20 -527 -8 -706 23 -734 130 -1358 538 -1771 1157 -160 240 -292 550 -364
855 -50 212 -60 304 -60 575 0 140 4 285 8 321 l8 67 57 -14 c31 -7 82 -18
112 -24z"/>
<path d="M595 2120 c3 -5 13 -10 21 -10 8 0 12 5 9 10 -3 6 -13 10 -21 10 -8
0 -12 -4 -9 -10z"/>
</g>
</svg>
